# xmcd
#
# Track frame offsets: 
#        150
#        22208
#        38986
#        62148
#        80577
#        115043
#        136491
#        158553
#        178068
#        194095
#        212479
#
# Disc length: 3131 seconds
#
# Revision: 2
# Processed by: cddbd v1.5.1PL2 Copyright (c) Steve Scherf et al.
# Submitted via: ExactAudioCopy v0.95a4
#
DISCID=9d0c390b
DTITLE=Fernando Noronha and Black Soul - Swamp Blues
DYEAR=1997
DGENRE=Blues
TTITLE0=Baby (Won't You Come Back Home)
TTITLE1=Dive Bomber
TTITLE2=Soul Fixin' Man
TTITLE3=Last Four Nickels
TTITLE4=Off The Hook
TTITLE5=Think About You Baby
TTITLE6=Sweet Home Chicago
TTITLE7=Don't Leave me Alone
TTITLE8=Swamp Blues
TTITLE9=Come On
TTITLE10=Groove For Stevie
EXTD=Brazilian Blues
EXTT0=
EXTT1=
EXTT2=
EXTT3=
EXTT4=
EXTT5=
EXTT6=
EXTT7=
EXTT8=
EXTT9=
EXTT10=
PLAYORDER=
